<?xml version="1.0" encoding="utf-8"?><svg xmlns="http://www.w3.org/2000/svg" xmlns:xlink="http://www.w3.org/1999/xlink"><symbol viewBox="0 0 25.18 16.164" id="arrow_down"><path d="M13.293 15.871a.99.99 0 0 1-1.406 0L.293 4.293a1.009 1.009 0 0 1 0-1.422L2.887.293a.99.99 0 0 1 1.406 0L12.59 8.59 20.887.293a.99.99 0 0 1 1.406 0l2.594 2.578a1.009 1.009 0 0 1 0 1.422L13.293 15.871z"/></symbol><symbol viewBox="1138.75 328.75 45 45" id="envelope_n"><path d="M1161.25 328.75c-12.427 0-22.5 10.073-22.5 22.5s10.073 22.5 22.5 22.5 22.5-10.073 22.5-22.5-10.073-22.5-22.5-22.5zm-13.281 17.604l7.269 4.442-7.269 9.138v-13.58zm.83 14.541l7.51-9.443 4.926 3.012 4.918-3.028 7.518 9.46h-24.872zm25.732-.921l-7.311-9.197 7.311-4.502v13.699zm0-15.163L1161.234 353l-13.265-8.106v-2.208h26.563v2.125z"/></symbol><symbol viewBox="0 0 96.124 96.123" id="facebook"><path d="M72.089.02L59.624 0C45.62 0 36.57 9.285 36.57 23.656v10.907H24.037a1.96 1.96 0 0 0-1.96 1.961v15.803a1.96 1.96 0 0 0 1.96 1.96H36.57v39.876a1.96 1.96 0 0 0 1.96 1.96h16.352a1.96 1.96 0 0 0 1.96-1.96V54.287h14.654a1.96 1.96 0 0 0 1.96-1.96l.006-15.803a1.963 1.963 0 0 0-1.961-1.961H56.842v-9.246c0-4.444 1.059-6.7 6.848-6.7l8.397-.003a1.96 1.96 0 0 0 1.959-1.96V1.98A1.96 1.96 0 0 0 72.089.02z"/></symbol><symbol viewBox="0 0 40 35" id="hamburger"><path d="M40 2.5A2.5 2.5 0 0 1 37.5 5h-35a2.5 2.5 0 1 1 0-5h35A2.5 2.5 0 0 1 40 2.5zm0 15a2.5 2.5 0 0 1-2.5 2.5h-35a2.5 2.5 0 1 1 0-5h35a2.5 2.5 0 0 1 2.5 2.5zm0 15a2.5 2.5 0 0 1-2.5 2.5h-35a2.5 2.5 0 1 1 0-5h35a2.5 2.5 0 0 1 2.5 2.5z"/></symbol><symbol viewBox="0 0 24 22.938" id="in"><path d="M2.875 5.344h-.031C1.109 5.344 0 4.156 0 2.672 0 1.156 1.156 0 2.906 0c1.766 0 2.859 1.156 2.875 2.672.016 1.484-1.109 2.672-2.906 2.672zm2.578 17.594H.297V7.453h5.156v15.485zm18.547 0h-5.141v-8.281c0-2.078-.75-3.5-2.609-3.5-1.422 0-2.266.953-2.641 1.875-.125.344-.172.797-.172 1.266v8.641h-5.14c.063-14.031 0-15.484 0-15.484h5.141v2.25h-.031c.672-1.063 1.891-2.609 4.672-2.609 3.391 0 5.922 2.219 5.922 6.969v8.873z"/></symbol><symbol viewBox="0 0 50 50" id="in_round"><path d="M25 0C11.192 0 0 11.193 0 25s11.192 25 25 25 25-11.193 25-25S38.808 0 25 0zm-5.547 34.136h-5.156V18.651h5.156v15.485zm-2.578-17.594h-.031C15.11 16.542 14 15.354 14 13.87c0-1.516 1.156-2.672 2.906-2.672 1.766 0 2.859 1.156 2.875 2.672.016 1.484-1.109 2.672-2.906 2.672zM38 34.136h-5.141v-8.281c0-2.078-.75-3.5-2.609-3.5-1.422 0-2.266.953-2.641 1.875-.125.344-.172.797-.172 1.266v8.641h-5.141c.063-14.031 0-15.484 0-15.484h5.141v2.204c.678-1.061 1.898-2.563 4.641-2.563 3.391 0 5.922 2.219 5.922 6.969v8.873z"/></symbol><symbol viewBox="0 0 289.074 289.074" id="makeup"><path d="M149.489 36.091c.27-.772-1.235-.808-2.438-.425.779-1.828 1.584-3.65 2.438-5.453.202-.43-.233-.626-.88-.642.147-.218.273-.445.435-.663.557-.761-.228-1.051-1.209-1.015-.016-.797-.839-1.155-1.729-1.103.08-.378.155-.761.223-1.144.292-.56.541-1.155.844-1.709.096-.176-.106-.28-.44-.326.031-.212.097-.425.127-.632.07-.497-.505-.679-1.214-.642a251.69 251.69 0 0 0 1.877-7.187c.313-1.284-3.485-.684-3.78.522-.09.373-.196.741-.292 1.104-.51-.155-1.326-.083-2.019.155.184-.875.375-1.766.562-2.651.259-1.264-1.437-1.424-2.667-.891.005-.15.031-.3.037-.45.054-1.041-1.178-1.259-2.252-.984.194-1.01.401-2.029.593-3.045.111-.605-.779-.745-1.717-.585.031-.3.088-.59.127-.891.016-.155-.028-.264-.06-.394.111-.989.254-1.962.36-2.957.17-1.672-3.664-1-3.806.424 0 .006-.005.016-.005.021-1.018.093-2.312.497-2.535 1.098-.51-.249-1.346-.197-2.074.062.096-.756.143-1.507.238-2.257.171-1.294-2.115-1.17-3.224-.383a2.66 2.66 0 0 0-.865.513c-.714-.129-1.584.072-2.141.523a2.872 2.872 0 0 0-.621.052c-.005-1.962-3.832-1.377-3.837.3 0 .238-.013.461-.013.694a3.66 3.66 0 0 0-1.08.357c-.005-.021-.005-.052-.005-.062-.09-.575-.611-.813-1.237-.834-.137-1.361-.259-2.718-.401-4.075-.117-1.098-3.93-.3-3.793 1.01.09.823.161 1.652.246 2.485-.308.125-.557.274-.712.42-.354-1.497-3.992-.575-3.78.947-.562 0-1.199.166-1.724.461-.011-.14-.037-.274-.047-.409-.181-1.833-3.977-.885-3.79 1 .036.378.106.746.147 1.119-.36.067-.723.15-1.049.285-1.02-.808-3.41-.192-3.379 1.181.031 1.119.138 2.227.208 3.345-.653.223-1.167.554-1.158.953-.041-.233-.096-.456-.137-.694-.163-.886-1.877-.771-2.949-.171a3.239 3.239 0 0 0-1.054.528c-1.147-.436-3.785.688-3.389 1.315.94 1.501 1.841 3.014 2.721 4.562-.859-.042-1.82.368-2.216 1.051a4.252 4.252 0 0 0-1.219.353c-1.279-.398-3.304.518-2.879 1.885.248.792.567 1.574.846 2.361-1.16.187-2.635.812-2.485 1.232.608 1.667 1.219 3.34 1.833 5.012-1.219-.078-2.783.735-2.48 1.859 3.966 14.903 12.953 27.408 19.878 40.959l1.442-.596c.243-.104 6.061-2.49 14.89-2.49 5.121 0 10.266.797 15.27 2.366l1.512.466a3127.927 3127.927 0 0 1 6.872-17.103c2.459-6.058 3.94-12.744 7.296-18.356.398-.663.111-1.062-.44-1.248.062-.182.135-.353.199-.513z"/><path d="M132.823 139.508c.081-35.542.005-63.769.005-63.769-15.7-4.903-27.478 0-27.478 0-.329 11.216.117 36.19.87 64.866 5.702-.973 15.786-2.179 26.603-1.097zm-26.449 5.914c1.533 56.793 4.173 126.103 4.425 132.83.321 8.9 9.807 8.833 9.807 8.833s9.329.342 10.144-9.32c1.507-17.797 1.983-82.239 2.11-133.45-10.807-1.13-21.083.164-26.486 1.107zm91.502-101.937l-10.921.223.638 30.592h-.146c-6.975 62.608 2.02 175.445 4.324 202.056l.149 7.363a5.464 5.464 0 0 0 5.458 5.354h.109c3.019-.073 5.416-2.559 5.354-5.577l-.031-1.378h.031c9.797-138.628-2.771-200.248-4.318-207.15l-.647-31.483zm-.248-3.79c2.972-9.926 6.757-23.348-1.932-23.348-8.549 0-13.173 6.333-13.085 11.671.077 4.779 4.215 11.677 4.215 11.677h10.802z"/></symbol><symbol viewBox="333.75 72.532 45 45" id="map_n"><circle cx="356.342" cy="92.018" r="5.854"/><path d="M356.25 72.532c-12.427 0-22.5 10.073-22.5 22.5s10.073 22.5 22.5 22.5 22.5-10.073 22.5-22.5-10.073-22.5-22.5-22.5zm0 37.882c-1.438-1.127-11.252-9.062-11.252-17.422 0-6.203 4.98-11.24 11.16-11.339v-.004l.092.001.092-.001v.004c6.18.099 11.16 5.136 11.16 11.339 0 8.36-9.814 16.295-11.252 17.422z"/></symbol><symbol viewBox="0 0 30.011 17.123" id="vk"><path d="M27.625 5.832c-3.031 4.031-3.359 3.656-.859 5.984 2.406 2.234 2.906 3.313 2.984 3.453 0 0 1 1.75-1.109 1.766l-4 .063c-.859.172-2-.609-2-.609-1.5-1.031-2.906-3.703-4-3.359 0 0-1.125.359-1.094 2.766.016.516-.234.797-.234.797s-.281.297-.828.344h-1.797c-3.953.25-7.438-3.391-7.438-3.391S3.437 9.707.093 1.848c-.219-.516.016-.766.016-.766S.343.785 1 .785L5.281.754c.406.063.688.281.688.281s.25.172.375.5c.703 1.75 1.609 3.344 1.609 3.344 1.563 3.219 2.625 3.766 3.234 3.438 0 0 .797-.484.625-4.375-.063-1.406-.453-2.047-.453-2.047-.359-.485-1.031-.625-1.328-.672-.234-.031.156-.594.672-.844.766-.375 2.125-.391 3.734-.375 1.266.016 1.625.094 2.109.203 1.484.359.984 1.734.984 5.047 0 1.063-.203 2.547.563 3.031.328.219 1.141.031 3.141-3.375 0 0 .938-1.625 1.672-3.516.125-.344.391-.484.391-.484s.25-.141.594-.094l4.5-.031c1.359-.172 1.578.453 1.578.453.234.641-.501 2.141-2.344 4.594z"/></symbol></svg>